<?xml version="1.0" standalone="no"?>
<!DOCTYPE svg PUBLIC "-//W3C//DTD SVG 20010904//EN"
 "http://www.w3.org/TR/2001/REC-SVG-20010904/DTD/svg10.dtd">
<svg version="1.0" xmlns="http://www.w3.org/2000/svg"
 width="795.000000pt" height="707.000000pt" viewBox="0 0 795.000000 707.000000"
 preserveAspectRatio="xMidYMid meet">

<g transform="translate(0.000000,707.000000) scale(0.100000,-0.100000)"
fill="#000000" stroke="none">
<path d="M3770 6963 c-79 -2 -149 -8 -154 -13 -6 -6 -26 -10 -46 -11 -39 0
-241 -32 -310 -49 -74 -17 -152 -31 -207 -37 -29 -3 -53 -8 -53 -12 0 -4 -24
-13 -52 -20 -54 -14 -169 -55 -200 -72 -10 -5 -27 -9 -37 -9 -11 0 -22 -4 -26
-9 -3 -5 -22 -15 -43 -22 -20 -6 -61 -22 -90 -35 -29 -13 -57 -24 -62 -24 -5
0 -29 -11 -52 -24 -24 -13 -91 -49 -150 -79 -58 -31 -124 -67 -145 -80 -21
-13 -69 -39 -108 -57 -38 -18 -72 -36 -75 -40 -3 -3 -50 -37 -105 -75 -55 -38
-101 -73 -103 -77 -2 -4 -8 -8 -13 -8 -5 0 -17 -7 -26 -15 -10 -9 -40 -34 -68
-56 -179 -144 -419 -373 -528 -504 -27 -33 -53 -62 -56 -65 -3 -3 -26 -32 -51
-65 -25 -33 -51 -66 -57 -73 -19 -20 -130 -181 -207 -300 -38 -59 -71 -109
-75 -112 -6 -5 -33 -56 -91 -170 -15 -30 -33 -71 -40 -90 -15 -44 -29 -75 -74
-171 -41 -88 -51 -117 -111 -294 -69 -208 -92 -285 -105 -360 -6 -38 -15 -79
-20 -90 -5 -11 -11 -42 -14 -70 -3 -27 -12 -99 -20 -160 -33 -231 -31 -665 3
-910 5 -33 12 -85 16 -115 3 -30 10 -64 15 -75 4 -11 13 -51 20 -90 6 -38 23
-108 37 -155 14 -47 30 -103 35 -125 6 -22 16 -53 23 -70 7 -16 16 -41 20 -55
11 -41 78 -215 84 -220 7 -6 53 -108 85 -190 65 -167 288 -497 451 -669 52
-55 80 -83 174 -171 45 -42 156 -122 236 -169 50 -30 92 -58 93 -63 2 -4 9 -8
15 -8 7 0 46 -13 87 -29 41 -16 98 -32 125 -36 28 -4 55 -10 60 -13 6 -4 24
-7 40 -8 17 0 107 -5 200 -9 94 -4 458 -7 810 -7 352 1 652 -1 668 -4 15 -3
27 -10 27 -16 0 -36 77 -167 132 -225 107 -110 171 -138 326 -137 65 0 107 5
114 12 7 7 20 12 29 12 33 0 104 46 164 106 56 56 88 107 129 207 8 20 16 37
18 37 2 1 280 3 618 5 749 6 1093 14 1116 27 5 3 32 9 59 12 173 24 429 171
620 355 71 69 212 222 234 255 8 11 26 35 40 52 34 39 72 90 85 113 6 10 24
38 40 62 16 24 46 70 67 102 21 31 46 74 56 95 9 20 19 39 23 42 3 3 11 23 19
45 7 22 28 72 46 110 17 39 38 85 46 102 8 18 17 33 21 33 5 0 8 10 8 23 0 13
4 27 9 33 6 5 23 49 39 97 17 49 33 91 36 94 3 4 6 15 6 25 0 10 4 26 9 36 13
24 58 194 72 274 7 37 16 65 20 63 4 -3 9 21 12 52 8 94 26 234 32 243 9 14
18 255 17 430 -1 163 -13 328 -32 465 -6 39 -13 97 -16 130 -4 33 -10 62 -14
65 -4 3 -15 48 -25 100 -9 52 -25 117 -36 145 -10 27 -19 60 -19 72 0 12 -4
25 -10 28 -5 3 -10 19 -10 35 0 16 -4 31 -9 34 -4 3 -14 27 -21 53 -8 27 -24
72 -37 101 -13 29 -23 61 -23 72 0 11 -4 20 -10 20 -5 0 -10 9 -10 20 0 11 -4
20 -8 20 -4 0 -14 17 -21 38 -14 38 -56 134 -72 164 -5 10 -9 26 -9 36 0 10
-4 22 -9 28 -4 5 -26 43 -47 84 -21 41 -50 93 -65 115 -15 22 -53 81 -84 130
-64 100 -158 233 -220 311 -22 28 -53 68 -70 90 -41 52 -86 104 -175 198 -105
111 -284 278 -375 351 -27 22 -52 43 -55 46 -5 5 -171 126 -219 159 -13 8 -48
34 -79 57 -31 24 -62 43 -69 43 -12 0 -34 12 -138 72 -27 16 -58 32 -67 35
-10 3 -18 9 -18 14 0 5 -6 9 -13 9 -8 0 -51 20 -97 45 -46 25 -89 45 -97 45
-7 0 -13 5 -13 10 0 6 -5 10 -10 10 -6 0 -29 9 -53 19 -23 11 -73 31 -112 46
-38 15 -79 30 -90 35 -11 4 -36 13 -55 20 -19 7 -44 16 -55 21 -32 15 -156 51
-205 59 -55 10 -150 29 -210 42 -25 5 -108 19 -185 29 -77 11 -156 24 -175 29
-41 10 -359 17 -570 13z m245 -274 c164 -46 196 -262 51 -350 -21 -13 -50 -19
-91 -19 -69 0 -108 19 -149 73 -32 41 -41 88 -31 152 11 74 80 135 175 154 3
0 23 -4 45 -10z m-540 -49 c3 -5 15 -10 25 -10 10 0 36 -17 59 -38 145 -135
57 -362 -141 -362 -64 0 -134 28 -145 58 -4 9 -15 25 -24 35 -22 24 -43 100
-36 129 20 83 29 102 63 138 21 22 46 40 55 40 10 0 21 5 24 10 3 6 30 10 60
10 30 0 57 -4 60 -10z m1137 -4 c42 -18 97 -81 105 -119 3 -15 10 -30 14 -33
16 -9 10 -81 -10 -126 -18 -41 -81 -122 -81 -105 0 5 -10 1 -22 -7 -15 -11
-45 -16 -88 -16 -56 0 -73 5 -111 29 -67 42 -99 102 -99 186 0 49 4 67 15 71
8 4 15 13 15 21 0 22 39 73 56 73 8 0 14 5 14 10 0 6 9 10 19 10 11 0 23 5 26
10 9 15 108 12 147 -4z m-1608 -237 c3 -17 6 -39 6 -48 0 -18 -58 -51 -90 -51
-10 0 -22 -4 -25 -10 -3 -5 -17 -10 -31 -10 -13 0 -24 -4 -24 -10 0 -5 -5 -10
-11 -10 -6 0 -53 -20 -106 -45 -52 -25 -96 -45 -98 -45 -1 0 -39 -20 -83 -45
-44 -25 -82 -45 -85 -45 -3 0 -16 22 -30 49 l-25 50 39 25 c21 15 43 26 49 26
5 0 10 5 10 10 0 6 4 10 9 10 6 0 52 20 103 44 137 65 179 83 244 105 123 40
140 40 148 0z m2068 5 c45 -15 111 -39 146 -55 34 -16 65 -29 67 -29 15 0 233
-114 250 -131 17 -16 18 -22 7 -37 -7 -9 -18 -29 -25 -44 -14 -34 -17 -34 -69
-2 -37 24 -164 86 -333 164 -33 15 -82 33 -108 41 -63 18 -78 35 -70 82 7 46
20 47 135 11z m-2766 -259 c43 -33 64 -77 64 -135 0 -39 -5 -51 -32 -77 -45
-42 -70 -53 -118 -53 -73 0 -150 70 -150 137 0 47 17 82 56 120 31 29 42 33
91 33 44 0 63 -5 89 -25z m3509 1 c119 -91 61 -266 -87 -266 -77 0 -148 66
-148 138 0 53 19 92 62 126 46 36 127 37 173 2z m-1778 -68 c50 -55 40 -110
-23 -134 -76 -29 -134 1 -134 68 0 55 34 88 93 88 32 0 49 -6 64 -22z m-552
-98 c3 -5 17 -10 31 -10 66 0 188 -91 247 -184 74 -116 100 -187 113 -318 8
-83 2 -85 -87 -27 -64 43 -87 48 -271 65 l-68 6 0 76 c-1 82 -12 106 -58 131
-17 9 -31 9 -57 1 -45 -15 -68 -71 -63 -155 l3 -60 -145 -6 c-162 -7 -248 -17
-256 -30 -3 -5 -14 -9 -24 -9 -10 0 -20 -3 -22 -7 -1 -5 -19 -17 -38 -27 -55
-31 -123 -87 -155 -129 -53 -69 -72 -85 -112 -96 -57 -15 -118 -72 -139 -129
-10 -26 -20 -51 -24 -57 -25 -38 8 -189 53 -249 14 -18 47 -43 74 -56 26 -13
56 -27 65 -32 42 -20 154 0 220 39 22 13 53 47 74 80 21 32 42 61 48 65 11 8
369 11 377 4 2 -2 3 -54 1 -114 l-3 -110 -71 -10 c-38 -6 -76 -8 -84 -5 -8 3
-14 0 -14 -5 0 -6 -21 -14 -47 -18 -39 -6 -54 -14 -83 -48 -59 -70 -164 -166
-187 -172 -13 -4 -23 -9 -23 -13 0 -14 -114 -36 -180 -36 -70 1 -190 24 -190
37 0 4 -5 8 -11 8 -26 0 -150 94 -208 157 -60 65 -97 129 -120 206 -6 20 -15
52 -21 70 -13 45 -13 286 1 345 11 49 22 79 45 123 8 15 24 46 36 70 42 80
135 160 278 238 67 37 154 53 279 50 61 -1 112 -1 114 2 2 2 14 31 27 63 32
80 140 188 232 234 37 17 77 32 90 33 12 0 32 4 43 9 29 12 302 12 310 0z
m1299 -1 c90 -23 116 -33 116 -41 0 -4 5 -8 11 -8 16 0 99 -59 135 -96 47 -47
91 -116 106 -161 l12 -40 114 5 c109 5 123 3 232 -30 48 -14 186 -96 224 -133
46 -46 79 -87 96 -120 8 -17 18 -32 22 -35 13 -10 49 -105 64 -165 19 -81 18
-266 -2 -352 -17 -72 -53 -166 -66 -171 -4 -2 -8 -9 -8 -16 0 -36 -229 -236
-270 -236 -5 0 -10 -4 -10 -9 0 -16 -166 -42 -230 -35 -52 6 -112 21 -155 40
-40 17 -143 111 -190 173 -31 40 -46 51 -77 56 -21 4 -38 11 -38 16 0 6 -4 7
-10 4 -14 -8 -172 14 -187 27 -9 7 -13 42 -13 108 0 80 3 99 16 104 9 3 96 6
194 6 149 0 181 -3 194 -16 9 -8 14 -20 11 -25 -4 -5 -2 -9 2 -9 5 0 17 -15
28 -32 29 -49 73 -85 126 -102 58 -20 89 -20 156 -2 126 34 196 129 196 266 1
122 -63 216 -172 256 -30 10 -55 27 -64 43 -24 40 -105 119 -151 148 -23 14
-43 29 -46 32 -12 15 -99 50 -140 57 -25 4 -112 10 -195 13 l-150 6 -5 91 c-6
105 -18 124 -77 124 -68 -1 -91 -36 -94 -145 -2 -76 6 -70 -133 -80 -81 -6
-173 -27 -186 -44 -3 -3 -26 -21 -51 -38 -39 -27 -48 -30 -53 -17 -7 17 8 136
25 199 24 88 107 232 167 287 38 35 143 88 175 88 14 0 29 5 32 10 8 14 267
13 319 -1z m-2797 -91 c42 -40 42 -60 0 -92 -43 -33 -51 -32 -76 3 -25 35 -29
101 -6 101 8 0 15 5 15 10 0 20 35 9 67 -22z m4050 10 c29 -27 29 -61 2 -99
-25 -36 -45 -37 -81 -2 -33 32 -35 55 -7 94 24 35 54 37 86 7z m-4302 -147
c72 -32 135 -124 135 -196 0 -45 -31 -114 -66 -147 -57 -52 -153 -73 -220 -48
-15 6 -35 8 -45 5 -24 -8 -209 -230 -209 -251 0 -4 12 -23 27 -43 16 -20 28
-39 28 -43 0 -3 3 -10 8 -14 20 -20 -1 -164 -24 -164 -5 0 -9 -6 -9 -13 0 -20
-50 -64 -92 -81 -99 -42 -213 -2 -267 94 -18 32 -16 171 3 208 30 57 101 102
161 102 35 0 62 19 100 71 57 78 77 103 130 157 l60 64 -4 89 c-2 60 1 89 8
89 6 0 11 9 11 20 0 26 70 94 112 107 51 17 109 14 153 -6z m4641 -2 c46 -22
104 -80 104 -104 0 -8 5 -15 11 -15 7 0 9 -33 8 -95 -3 -90 -1 -97 22 -119 44
-41 123 -138 156 -189 40 -62 47 -67 103 -67 53 0 123 -43 159 -98 19 -29 23
-48 23 -113 -1 -43 -6 -88 -12 -100 -49 -90 -178 -134 -275 -94 -112 48 -164
190 -105 293 13 23 27 42 32 42 22 0 1 44 -62 130 -127 172 -110 157 -164 142
-92 -24 -182 -5 -232 50 -68 74 -80 148 -39 230 56 111 170 156 271 107z
m-3111 -397 c6 -4 9 -69 7 -169 l-3 -163 -183 0 c-170 0 -184 1 -201 20 -10
11 -14 20 -9 20 5 0 4 4 -1 8 -17 12 -95 120 -95 131 0 17 77 87 117 106 54
26 96 36 188 44 112 11 168 12 180 3z m365 -19 c48 -15 110 -50 110 -61 0 -4
14 -23 30 -42 17 -19 45 -64 63 -100 30 -63 31 -70 35 -215 1 -82 -1 -155 -5
-161 -5 -7 -46 -13 -98 -15 -49 -2 -92 -7 -95 -11 -5 -7 -115 -24 -190 -31
l-25 -2 -3 324 c-2 253 1 326 10 333 17 11 110 0 168 -19z m858 -296 c2 -278
0 -318 -13 -323 -20 -8 -147 5 -141 14 2 4 -51 9 -118 10 -77 3 -124 8 -129
15 -4 7 -6 84 -5 172 2 126 7 168 20 195 70 144 157 215 283 230 112 14 100
50 103 -313z m440 302 c2 -5 12 -9 23 -9 27 0 99 -23 99 -32 0 -5 7 -8 15 -8
14 0 80 -62 95 -90 6 -11 -2 -28 -26 -55 -19 -22 -37 -48 -40 -58 -3 -9 -10
-15 -15 -12 -5 4 -9 -3 -9 -13 0 -39 -20 -43 -216 -40 l-189 3 -3 159 c-2 121
1 162 10 168 16 11 252 -1 256 -13z m-3078 -382 c0 -67 7 -118 26 -187 14 -52
28 -110 31 -127 3 -18 9 -30 14 -27 5 3 9 -2 9 -11 0 -17 28 -76 40 -85 3 -3
20 -26 38 -51 39 -58 192 -210 192 -192 0 3 6 1 13 -4 30 -25 107 -61 165 -78
34 -10 62 -22 62 -25 0 -4 59 -7 130 -7 72 0 130 3 130 8 0 4 17 11 38 15 95
17 258 129 331 228 27 36 42 47 70 51 20 3 71 12 115 20 43 8 82 13 86 10 5
-3 10 -1 12 4 1 6 32 15 68 21 36 7 85 16 110 21 119 25 172 32 250 33 l85 1
0 -670 0 -670 -145 -3 c-80 -2 -154 -1 -165 2 -12 4 -30 27 -45 58 -13 29 -35
61 -47 71 -13 10 -29 24 -36 31 -51 49 -188 64 -269 29 -55 -25 -117 -85 -146
-145 l-24 -46 -101 -3 c-149 -5 -456 -4 -580 1 l-108 4 -17 35 c-20 43 -95
121 -116 121 -8 0 -16 6 -18 13 -7 18 -177 16 -214 -3 -42 -22 -114 -85 -114
-101 0 -3 -8 -16 -19 -27 l-18 -22 -39 26 c-22 15 -42 32 -46 38 -3 6 -18 24
-32 41 -35 41 -48 110 -44 245 l3 115 479 3 c345 1 483 -1 492 -9 10 -8 14
-37 14 -100 0 -135 19 -169 96 -169 36 0 51 5 66 22 24 28 28 45 31 158 l2 95
115 5 c125 5 150 16 212 86 25 29 33 31 100 34 86 3 108 3 208 -5 69 -6 77 -4
104 18 25 20 29 30 29 71 -2 84 -8 86 -214 86 -228 0 -268 -8 -332 -69 -27
-25 -56 -49 -65 -53 -9 -4 -364 -7 -788 -7 l-771 -1 -7 50 c-8 62 14 159 58
250 93 195 191 288 349 330 77 21 100 78 51 127 -23 23 -30 25 -81 19 -30 -3
-72 -15 -93 -26 -47 -24 -50 -24 -50 -6 0 24 33 116 42 116 4 0 8 11 8 25 0
14 5 25 10 25 6 0 10 6 10 14 0 23 70 118 131 179 57 55 95 80 112 70 4 -2 7
-46 7 -96z m805 93 c3 -5 13 -10 22 -10 9 0 27 -12 40 -27 32 -37 26 -94 -14
-135 -23 -23 -38 -29 -76 -30 -53 -1 -77 15 -102 65 -19 38 -19 51 0 87 23 45
112 79 130 50z m2702 -2 c53 -22 63 -38 63 -93 0 -44 -4 -55 -30 -80 -24 -23
-39 -28 -77 -28 -41 0 -50 4 -75 33 -21 25 -28 45 -28 75 0 47 12 66 55 89 37
19 56 20 92 4z m799 -16 c21 -16 53 -43 69 -61 17 -18 37 -40 46 -50 30 -29
99 -144 99 -163 0 -10 4 -18 8 -18 11 0 47 -118 39 -126 -3 -4 -23 4 -44 16
-22 13 -62 25 -95 27 -51 5 -59 3 -82 -20 -54 -55 -26 -107 74 -137 68 -20
161 -80 205 -132 104 -121 176 -279 179 -393 0 -25 4 -45 9 -45 4 0 7 -7 7
-16 0 -8 -4 -12 -10 -9 -5 3 -10 -1 -10 -9 0 -14 -79 -16 -772 -16 -862 0
-781 -7 -862 71 -20 20 -54 41 -74 47 -22 7 -117 11 -232 11 -184 0 -196 -1
-217 -21 -33 -31 -32 -100 2 -134 24 -24 25 -24 209 -22 182 1 186 1 205 -21
11 -13 21 -26 23 -31 2 -4 21 -19 42 -34 36 -24 47 -26 145 -26 70 0 111 -4
119 -12 8 -8 12 -49 12 -118 0 -134 9 -150 83 -150 77 1 91 23 97 165 l5 110
487 3 487 2 7 -35 c10 -57 -1 -266 -17 -300 -18 -39 -65 -91 -105 -115 -39
-25 -53 -25 -61 -2 -14 38 -49 76 -102 110 -54 35 -60 37 -141 36 -69 0 -92
-5 -125 -23 -51 -29 -88 -69 -114 -119 l-20 -39 -98 -4 c-101 -3 -483 -3 -611
0 l-72 2 -29 57 c-45 90 -84 118 -216 159 -16 5 -41 6 -55 2 -14 -5 -44 -13
-67 -19 -63 -16 -122 -66 -161 -137 l-34 -63 -147 0 c-81 0 -151 4 -157 9 -5
6 -8 265 -6 675 l2 666 70 0 c73 0 201 -17 235 -31 11 -4 36 -10 55 -13 78
-11 144 -26 149 -34 3 -4 17 -8 31 -8 39 -1 172 -25 200 -36 14 -6 43 -33 66
-61 76 -98 224 -196 317 -212 21 -3 35 -10 33 -14 -3 -5 55 -8 129 -8 74 1
135 4 135 7 0 4 28 15 62 25 65 19 161 66 189 91 8 8 20 14 25 14 9 0 111 103
149 150 42 52 87 126 92 153 3 15 10 30 14 33 5 3 9 14 9 25 0 10 4 27 9 37
25 49 51 191 51 283 0 43 4 79 8 79 5 0 27 -13 48 -28z m-5168 -423 c2 -5 11
-9 19 -9 10 0 13 -5 8 -17 -4 -10 -13 -36 -20 -58 -7 -22 -29 -76 -50 -120
-21 -44 -61 -149 -90 -233 -30 -85 -56 -156 -59 -160 -3 -3 -6 -14 -6 -25 0
-15 -4 -18 -22 -12 -13 4 -35 9 -51 12 -15 3 -30 9 -33 14 -6 10 39 169 57
201 5 10 9 25 9 33 0 8 4 23 9 33 5 9 13 28 19 42 6 14 28 65 48 115 21 49 54
116 73 148 32 51 39 57 61 51 14 -3 27 -10 28 -15z m6065 -40 c18 -30 39 -70
46 -89 8 -19 18 -40 23 -46 10 -14 53 -129 80 -214 11 -36 24 -74 28 -85 10
-22 25 -76 34 -116 5 -25 2 -28 -39 -38 -57 -14 -65 -14 -65 4 0 8 -4 23 -9
33 -5 9 -16 40 -25 67 -46 150 -82 248 -123 330 -8 17 -27 65 -42 107 -31 85
-35 74 34 98 25 8 20 13 58 -51z m-6376 -757 c36 -11 105 -73 119 -109 32 -75
9 -167 -53 -218 -40 -32 -153 -59 -153 -36 0 5 -12 9 -26 9 -28 0 -87 50 -110
94 -8 15 -14 51 -14 80 0 125 118 214 237 180z m6710 -1 c18 -1 78 -61 102
-101 24 -41 27 -105 7 -153 -16 -40 -80 -97 -107 -97 -11 0 -28 -4 -37 -9 -30
-16 -117 8 -155 43 -42 38 -71 116 -62 165 18 94 107 164 200 156 22 -2 45 -4
52 -4z m-6049 -97 c22 -6 22 -9 22 -170 0 -103 4 -164 10 -164 6 0 10 -7 10
-15 0 -20 24 -68 63 -126 35 -51 85 -91 167 -131 40 -20 59 -36 69 -60 17 -40
110 -137 132 -138 8 0 21 -6 27 -12 9 -9 44 -13 102 -13 58 0 93 4 102 13 6 6
19 12 27 12 19 0 109 93 121 124 12 32 56 36 436 36 317 0 384 -4 384 -21 0
-5 11 -27 25 -49 l25 -39 -25 -29 c-46 -55 -376 -377 -393 -384 -21 -8 -525
-10 -546 -2 -9 3 -16 12 -16 20 0 8 -3 14 -7 14 -5 0 -17 13 -28 30 -11 16
-42 42 -70 57 -42 23 -61 27 -126 26 -96 0 -172 -34 -226 -99 -28 -35 -42 -44
-67 -44 -145 0 -387 158 -469 306 -68 123 -79 169 -79 345 0 86 4 172 10 190
6 19 16 52 22 74 24 80 82 179 127 218 39 32 51 37 96 37 29 0 62 -3 75 -6z
m5447 -36 c104 -101 155 -262 155 -490 0 -157 -9 -198 -62 -308 -38 -77 -154
-197 -242 -249 -58 -35 -161 -73 -227 -85 -33 -6 -39 -3 -95 52 -82 81 -118
96 -230 95 -63 0 -97 -5 -109 -14 -23 -18 -106 -101 -123 -123 -11 -14 -44
-16 -276 -16 -252 0 -264 1 -287 21 -60 52 -389 381 -389 390 0 5 -4 9 -10 9
-11 0 35 91 53 102 14 9 748 11 771 2 9 -3 16 -12 16 -20 0 -8 4 -14 9 -14 5
0 12 -9 16 -20 9 -28 71 -87 114 -108 26 -12 60 -17 121 -16 101 0 162 25 210
83 16 20 36 43 44 53 8 9 16 24 18 34 2 11 29 31 63 49 33 16 65 34 72 40 6 5
27 21 45 34 43 31 104 124 120 184 7 26 16 47 21 47 4 0 7 8 6 18 -1 9 -1 76
0 149 1 149 -5 140 94 142 55 1 60 -1 102 -41z m-3481 -410 c30 -13 66 -69 66
-101 0 -32 -36 -86 -66 -97 -49 -19 -80 -12 -113 25 -50 58 -41 127 22 165 37
23 56 25 91 8z m1415 -2 c64 -34 82 -122 35 -169 -32 -33 -57 -41 -98 -33 -50
10 -86 56 -86 111 0 86 72 130 149 91z m-4050 -193 c6 -104 16 -206 21 -228 4
-22 13 -66 19 -97 27 -143 34 -174 41 -193 4 -11 16 -49 25 -85 19 -72 47
-153 76 -217 11 -24 19 -45 19 -48 0 -3 20 -47 45 -97 25 -50 45 -98 45 -105
0 -8 -13 -22 -30 -31 -16 -9 -30 -20 -30 -24 0 -5 -7 -8 -15 -8 -9 0 -38 48
-74 123 -84 173 -94 198 -134 327 -85 273 -115 444 -123 708 l-6 162 54 0 55
0 12 -187z m1335 153 c30 -27 36 -40 36 -73 0 -52 -29 -89 -82 -104 -36 -9
-45 -8 -67 8 -36 27 -65 87 -56 120 3 14 20 39 37 55 43 40 86 38 132 -6z
m4058 -6 c40 -42 46 -66 27 -103 -34 -66 -86 -89 -141 -63 -76 37 -78 153 -3
194 41 23 76 14 117 -28z m1336 -55 c10 -255 -73 -694 -172 -908 -14 -32 -26
-61 -26 -64 0 -18 -110 -241 -123 -249 -10 -7 -87 48 -87 62 0 6 13 38 30 70
48 97 120 263 120 279 0 8 4 23 9 33 5 9 14 35 19 57 6 22 17 63 25 90 15 50
25 94 47 210 6 33 15 74 20 90 4 17 11 91 14 165 4 74 9 163 12 198 l6 63 52
-3 51 -3 3 -90z m-3003 -93 c6 -4 29 -33 53 -64 23 -32 46 -58 50 -58 5 0 17
-8 28 -18 24 -23 90 -42 142 -42 35 0 47 -6 74 -36 18 -21 51 -53 73 -73 22
-19 127 -123 234 -229 l194 -194 51 8 c28 5 159 8 291 9 l240 0 20 -41 c11
-22 27 -49 35 -60 25 -32 93 -82 123 -89 15 -4 27 -11 27 -16 0 -12 113 -12
126 0 5 5 26 14 46 20 41 14 122 88 153 141 19 32 26 36 90 46 39 7 103 23
144 38 94 33 101 33 101 -2 0 -161 -172 -427 -323 -502 -71 -35 -156 -60 -205
-60 -44 0 -94 -22 -129 -57 -72 -74 -174 -114 -290 -114 -155 0 -208 37 -548
376 -347 346 -572 558 -618 582 -23 12 -59 25 -79 28 -21 4 -38 10 -38 13 0 4
-29 7 -65 8 -36 0 -65 -3 -65 -7 0 -4 -22 -10 -50 -14 -27 -4 -50 -11 -50 -16
0 -5 -7 -9 -15 -9 -8 0 -37 -13 -65 -30 -28 -16 -55 -30 -60 -30 -6 0 -10 98
-10 250 l0 250 153 0 c83 0 157 -4 162 -8z m-527 -242 c1 -129 0 -241 -3 -248
-4 -11 -12 -10 -37 6 -82 49 -128 70 -166 77 -23 4 -42 10 -42 14 0 9 -115 7
-140 -2 -8 -3 -42 -13 -75 -23 -56 -17 -71 -29 -245 -198 -102 -100 -282 -278
-400 -398 -238 -240 -367 -349 -439 -369 -70 -20 -176 -15 -246 11 -68 26
-100 46 -169 107 -39 35 -56 43 -86 43 -95 0 -258 58 -320 113 -36 32 -122
135 -151 182 -53 83 -110 277 -88 300 6 6 20 3 39 -8 42 -25 139 -56 175 -57
48 0 105 -20 105 -35 0 -31 99 -127 166 -161 34 -17 64 -24 106 -24 32 0 58 3
58 8 0 4 19 15 43 25 49 20 119 87 145 137 12 24 27 37 50 42 38 10 459 4 515
-7 l38 -7 197 197 c343 342 322 324 372 330 94 13 172 60 227 136 l35 49 167
-2 166 -3 3 -235z m-1959 -318 c31 -39 43 -83 30 -116 -20 -52 -48 -76 -88
-76 -50 0 -88 34 -103 92 -11 44 -10 48 15 81 15 20 37 38 49 40 36 7 82 -3
97 -21z m4249 0 c28 -18 55 -78 46 -104 -3 -11 -19 -35 -36 -54 -25 -29 -37
-34 -73 -34 -37 0 -46 5 -69 34 -18 25 -26 47 -26 76 0 92 79 133 158 82z
m-2548 -12 c0 -5 11 -10 25 -10 14 0 25 -4 25 -10 0 -5 5 -10 11 -10 28 0 129
-115 129 -147 0 -7 3 -13 8 -13 12 0 39 -72 51 -135 14 -74 14 -451 1 -531
-13 -75 -43 -174 -52 -174 -5 0 -8 -7 -8 -16 0 -32 -72 -143 -141 -217 -139
-150 -309 -227 -497 -227 -91 0 -225 27 -291 57 -92 43 -205 136 -297 245
l-32 38 -48 -15 c-227 -71 -358 -71 -541 0 -86 34 -124 57 -187 115 -84 77
-198 283 -138 251 9 -5 50 -14 90 -20 61 -10 79 -17 110 -45 64 -59 112 -88
212 -127 23 -9 80 -14 170 -14 133 0 136 1 200 33 77 38 111 65 242 192 55 52
107 99 116 103 9 4 30 26 47 48 36 48 390 399 427 423 46 30 52 15 43 -103 -5
-58 -9 -122 -9 -143 -1 -28 -8 -41 -31 -59 -56 -42 -96 -84 -109 -114 -32 -74
-36 -89 -36 -135 0 -46 4 -61 36 -136 32 -74 135 -148 225 -160 53 -7 156 24
207 63 68 51 122 158 122 242 0 87 -81 207 -165 244 -22 10 -47 22 -55 26 -13
7 -15 46 -18 238 l-2 230 22 11 c29 14 138 15 138 2z m843 -4 l33 -13 -2 -224
c-1 -123 -2 -229 -3 -236 -1 -7 -17 -15 -36 -19 -19 -3 -35 -10 -35 -14 0 -5
-9 -12 -21 -15 -62 -20 -129 -141 -129 -232 1 -145 91 -255 239 -289 96 -23
206 17 272 97 57 69 98 213 71 245 -5 5 -14 27 -21 50 -13 41 -69 107 -130
153 l-31 23 0 144 c0 79 4 144 9 144 18 0 73 -51 301 -276 129 -127 258 -253
285 -279 28 -25 73 -69 102 -96 28 -27 56 -49 61 -49 6 0 12 -3 14 -7 6 -14
72 -59 123 -83 45 -22 64 -24 180 -25 113 0 139 3 195 24 60 22 157 82 205
128 22 21 194 58 207 45 4 -4 -7 -36 -24 -72 -23 -49 -54 -88 -123 -155 -76
-75 -104 -96 -168 -123 -177 -76 -358 -80 -552 -12 l-60 21 -73 -80 c-77 -85
-193 -172 -277 -209 -172 -76 -389 -69 -573 19 -65 32 -101 58 -166 122 -104
103 -176 201 -176 241 0 8 -4 16 -8 18 -4 2 -19 35 -32 73 -23 66 -25 85 -28
340 -4 289 2 344 44 422 32 59 96 154 101 149 2 -2 14 5 27 17 48 43 140 58
199 33z m-1030 -645 c62 -27 87 -56 87 -104 0 -65 -26 -99 -92 -117 -53 -15
-110 9 -126 54 -27 73 -5 166 39 166 10 0 21 5 24 10 9 14 17 13 68 -9z m1186
-5 c59 -31 76 -98 43 -166 -13 -27 -27 -37 -61 -47 -55 -16 -84 -9 -121 29
-26 25 -30 37 -30 81 0 29 6 59 13 67 38 49 102 63 156 36z m-3371 -33 c35
-22 62 -49 62 -63 0 -5 4 -10 8 -10 28 0 42 -145 20 -197 -22 -51 -92 -108
-148 -121 -104 -24 -213 39 -240 139 -26 95 11 205 83 249 43 27 175 28 215 3z
m5711 -20 c73 -62 101 -165 67 -244 -56 -130 -200 -171 -318 -91 -21 13 -38
28 -38 33 0 4 -6 14 -13 21 -23 24 -37 69 -37 118 0 44 15 97 31 110 3 3 11
15 18 27 21 41 78 62 167 63 78 0 81 -1 123 -37z m-2947 -520 c40 -78 61 -116
68 -123 3 -3 3 -164 0 -357 l-5 -353 -25 -17 c-59 -43 -135 -54 -196 -28 -19
8 -40 14 -47 12 -6 -1 -11 3 -12 10 0 17 -25 41 -25 24 0 -7 -4 -9 -10 -6 -13
8 -13 154 1 213 13 57 17 67 65 162 36 72 38 79 41 195 l4 120 52 107 c29 58
53 107 54 107 0 1 17 -29 35 -66z m-2318 -26 c31 -41 33 -79 6 -117 -53 -75
-180 -30 -180 64 0 13 12 38 26 55 22 27 32 31 74 31 44 0 52 -4 74 -33z
m4725 7 c24 -31 28 -99 7 -127 -18 -23 -70 -38 -107 -30 -16 3 -38 18 -49 33
-21 29 -28 100 -10 100 6 0 10 5 10 10 0 25 27 39 77 40 44 0 55 -4 72 -26z
m-5223 -2 c7 -4 19 -24 27 -45 46 -108 159 -232 253 -278 l62 -29 591 0 c331
0 599 -4 609 -9 37 -19 149 -60 197 -71 28 -6 66 -16 85 -21 20 -6 106 -9 195
-7 171 4 243 18 336 63 29 14 54 23 56 21 3 -2 -10 -33 -28 -67 -17 -35 -35
-75 -39 -89 -6 -23 -14 -26 -96 -38 -181 -25 -289 -26 -409 -2 -60 12 -122 25
-137 27 -16 3 -28 9 -28 13 0 4 -12 10 -27 13 -16 3 -46 11 -68 18 -30 10
-192 14 -630 18 l-590 6 -59 24 c-76 31 -229 134 -265 180 -64 80 -121 197
-121 248 0 15 7 23 23 26 37 7 51 7 63 -1z m5662 -30 c5 -31 -32 -123 -74
-187 -71 -110 -220 -215 -350 -249 -53 -14 -141 -16 -603 -16 -358 0 -557 -4
-588 -11 -76 -18 -127 -32 -138 -39 -13 -9 -82 -26 -183 -46 -91 -18 -191 -16
-379 7 -79 9 -113 17 -113 26 0 7 -16 47 -36 89 -20 41 -34 77 -31 80 3 3 25
-5 49 -19 24 -14 68 -30 98 -37 30 -7 64 -17 75 -22 11 -5 95 -7 185 -5 125 2
186 8 250 24 93 23 195 57 222 73 12 6 222 10 600 10 638 0 621 -1 713 61 78
52 166 165 196 252 13 37 14 38 59 35 39 -3 45 -6 48 -26z m-2651 -659 c-3
-10 -5 -4 -5 12 0 17 2 24 5 18 2 -7 2 -21 0 -30z m4 -133 c-10 -25 -10 -24
-10 6 -1 17 2 47 7 65 l7 34 3 -40 c2 -23 -1 -52 -7 -65z m-291 -91 c0 -6 -4
-7 -10 -4 -5 3 -10 11 -10 16 0 6 5 7 10 4 6 -3 10 -11 10 -16z m-90 -25 c0
-3 -7 -1 -15 6 -8 7 -15 17 -15 22 0 5 7 3 15 -6 8 -8 15 -18 15 -22z m60 5
c0 -5 -7 -6 -15 -3 -8 4 -15 13 -15 21 0 13 3 13 15 3 8 -7 15 -16 15 -21z
m110 -57 c33 1 55 -1 51 -5 -14 -14 -144 -4 -149 11 -3 11 0 12 18 2 12 -6 48
-10 80 -8z"/>
<path d="M1774 4291 c-37 -23 -59 -77 -50 -125 7 -38 26 -57 74 -76 69 -27
152 27 152 100 0 97 -95 151 -176 101z"/>
<path d="M6070 4308 c0 -4 -5 -8 -11 -8 -6 0 -16 -6 -22 -13 -56 -61 -46 -166
18 -195 34 -16 55 -15 98 3 52 22 67 41 67 88 0 59 -8 79 -38 101 -27 21 -112
39 -112 24z"/>
<path d="M1356 2973 c-23 -6 -49 -31 -65 -61 -16 -29 1 -85 32 -107 27 -19 92
-19 109 0 34 37 38 47 38 85 0 62 -52 100 -114 83z"/>
<path d="M6535 2972 c-37 -8 -55 -38 -55 -92 0 -27 5 -50 10 -50 6 0 10 -6 10
-13 0 -8 12 -19 26 -26 47 -21 122 16 139 69 6 19 -17 82 -37 97 -16 13 -67
21 -93 15z"/>
<path d="M5973 2863 c9 -2 23 -2 30 0 6 3 -1 5 -18 5 -16 0 -22 -2 -12 -5z"/>
</g>
</svg>
